<?xml version="1.0" standalone="no"?>
<!DOCTYPE svg PUBLIC "-//W3C//DTD SVG 20010904//EN"
 "http://www.w3.org/TR/2001/REC-SVG-20010904/DTD/svg10.dtd">
<svg version="1.0" xmlns="http://www.w3.org/2000/svg"
 width="2048.000000pt" height="2048.000000pt" viewBox="0 0 2048.000000 2048.000000"
 preserveAspectRatio="xMidYMid meet">

<g transform="translate(0.000000,2048.000000) scale(0.100000,-0.100000)"
fill="#000000" stroke="none">
<path d="M0 10220 l0 -10220 10240 0 10240 0 0 10220 0 10220 -10240 0 -10240
0 0 -10220z m11081 4234 c18 -16 16 -44 -3 -44 -10 0 -103 -73 -123 -97 -5 -6
-26 -30 -45 -53 -19 -24 -44 -52 -55 -64 -11 -12 -42 -48 -69 -81 -27 -33 -74
-84 -103 -114 -30 -30 -77 -81 -106 -113 -29 -33 -64 -66 -79 -74 -31 -16 -88
-19 -88 -4 0 6 17 10 38 10 32 0 44 6 71 38 18 20 77 84 130 142 53 58 116
130 141 160 24 30 72 84 107 120 34 35 60 66 58 68 -9 9 -67 -42 -131 -115
-38 -43 -103 -114 -144 -158 -70 -75 -124 -138 -168 -194 l-18 -23 -1946 -4
c-1225 -2 -1955 -7 -1971 -13 -45 -17 -50 -42 -21 -106 l25 -58 -1 -946 c-1
-1268 -3 -1140 18 -1148 9 -4 20 -10 23 -15 3 -4 554 -8 1224 -8 976 -1 1221
2 1231 12 7 7 69 81 139 163 70 83 148 174 174 203 25 30 50 61 55 70 5 10 12
19 15 22 3 3 25 30 48 60 23 30 58 73 78 95 20 22 71 83 113 135 42 52 84 102
94 110 9 8 66 76 125 151 103 130 304 370 514 613 52 61 136 161 185 221 49
61 119 146 156 190 186 222 481 578 540 651 37 46 78 94 90 107 13 13 36 38
51 55 16 17 46 36 67 42 25 7 523 9 1513 8 l1475 -3 27 -25 c15 -14 32 -34 38
-45 15 -27 10 -2054 -5 -2073 -8 -10 -14 -10 -25 0 -12 10 -17 8 -26 -7 -6
-11 -24 -32 -40 -47 l-29 -28 -670 0 -670 0 -33 29 c-18 16 -39 31 -47 33 -17
6 -16 527 1 572 6 16 10 31 7 33 -8 9 -46 -8 -41 -18 4 -5 -1 -9 -9 -9 -9 0
-16 5 -16 10 0 6 -9 10 -20 10 -11 0 -20 -4 -20 -10 0 -5 -7 -10 -16 -10 -8 0
-13 3 -11 8 6 9 -571 8 -600 -2 -28 -9 -167 -172 -158 -186 3 -6 0 -7 -9 -4
-9 3 -16 2 -16 -2 0 -5 -16 -27 -36 -49 -43 -49 -59 -75 -44 -75 5 0 -3 -17
-18 -39 -16 -23 -30 -34 -34 -28 -8 13 -64 -44 -149 -153 -32 -41 -68 -85 -80
-98 -12 -14 -18 -30 -14 -42 4 -12 -2 -28 -17 -45 -20 -24 -23 -24 -30 -8 -6
13 -7 10 -3 -8 6 -31 -14 -53 -39 -43 -16 6 -21 -4 -16 -35 1 -9 -4 -12 -15
-8 -11 5 -17 -1 -21 -22 -4 -16 -30 -58 -60 -93 -30 -35 -54 -67 -54 -72 0 -4
-7 -6 -14 -3 -10 4 -13 1 -9 -9 6 -17 -13 -19 -21 -1 -3 6 -3 1 0 -12 5 -20 3
-23 -10 -18 -14 5 -16 3 -11 -13 4 -12 -2 -29 -19 -47 -13 -15 -34 -39 -45
-52 -17 -19 -21 -20 -21 -8 0 29 -13 18 -83 -69 -57 -70 -67 -87 -57 -99 9
-11 9 -15 1 -15 -6 0 -11 5 -11 12 0 13 -10 3 -85 -86 -30 -35 -45 -61 -38
-63 7 -2 9 -11 6 -19 -4 -12 -8 -12 -20 3 -13 17 -14 16 -10 -9 2 -16 1 -28
-3 -28 -4 0 -13 -11 -20 -25 -7 -13 -17 -22 -22 -19 -4 3 -8 -2 -8 -11 0 -23
-41 -75 -53 -68 -6 4 -8 0 -4 -10 7 -20 -8 -23 -17 -4 -3 6 -3 1 0 -12 5 -20
3 -23 -10 -18 -10 4 -15 3 -11 -3 8 -12 -18 -49 -107 -157 -37 -45 -68 -86
-68 -91 0 -5 51 -63 113 -129 116 -124 226 -246 507 -563 90 -102 200 -223
244 -270 45 -47 109 -116 142 -155 34 -38 96 -109 138 -157 l77 -88 531 -2
c291 -2 535 0 541 4 7 4 11 106 13 304 2 164 8 302 13 307 5 5 327 11 752 14
742 6 744 6 770 -15 l26 -21 -3 -898 -2 -898 -22 -58 c-25 -66 -139 -197 -171
-197 -10 0 -21 -4 -24 -10 -3 -5 -16 -10 -28 -9 -15 0 -17 2 -7 6 26 10 124
80 142 101 22 27 38 59 48 93 11 36 -2 38 -21 2 -26 -48 -93 -109 -169 -154
l-74 -44 -926 -8 c-921 -8 -2131 -3 -2245 10 -60 6 -61 7 -158 102 -53 53
-119 123 -145 156 -25 33 -94 114 -152 180 -58 66 -139 161 -180 210 -88 107
-194 229 -264 305 -28 31 -87 98 -131 150 -44 51 -102 119 -130 150 -71 79
-222 253 -348 399 -60 69 -136 157 -170 195 -34 38 -66 76 -71 85 -5 9 -17 23
-25 31 -9 8 -28 31 -42 50 -44 58 -69 84 -75 77 -4 -4 7 -22 25 -42 35 -40 42
-68 10 -39 -27 25 -52 72 -44 85 6 8 -86 121 -145 179 -8 8 -29 33 -45 55 -38
51 -95 112 -95 101 0 -4 11 -21 25 -38 40 -47 28 -57 -13 -12 -78 86 -93 106
-88 111 3 3 19 -10 35 -28 20 -22 31 -28 31 -18 0 8 -10 24 -22 35 -13 11 -49
49 -80 85 -53 60 -65 74 -110 128 -10 12 -23 21 -30 21 -7 0 8 -20 32 -45 24
-24 41 -47 38 -50 -3 -3 -36 26 -75 64 -38 38 -88 78 -112 90 l-43 22 -936 2
c-698 2 -942 5 -957 14 -53 31 28 34 989 31 l952 -3 54 -34 c55 -34 139 -121
315 -327 28 -32 66 -77 86 -99 20 -22 65 -74 100 -116 35 -42 120 -141 188
-220 68 -79 145 -168 170 -198 25 -30 51 -59 56 -65 10 -10 106 -121 335 -386
41 -48 167 -192 280 -321 113 -129 244 -279 290 -334 46 -55 89 -105 95 -111
5 -6 33 -37 60 -68 243 -282 426 -483 455 -500 35 -21 37 -21 1646 -19 1561 3
1613 3 1655 22 56 24 132 95 155 146 18 38 19 76 19 650 0 568 -1 613 -18 656
-19 46 -20 47 -80 59 -34 6 -72 16 -85 21 -13 5 -63 18 -110 29 -48 10 -107
26 -131 35 -32 11 -47 12 -57 4 -10 -8 -15 -4 -21 18 -4 15 -10 -214 -13 -510
-5 -500 -6 -540 -23 -552 -10 -7 -15 -19 -11 -29 8 -20 -18 -51 -61 -74 -25
-14 -82 -17 -345 -22 -247 -4 -301 -7 -250 -14 36 -5 57 -11 48 -13 -27 -7
-22 -23 6 -23 27 0 43 -16 24 -23 -7 -2 13 -8 45 -12 32 -4 64 -14 72 -21 7
-8 22 -14 32 -14 10 0 35 -9 55 -20 20 -11 47 -22 60 -24 13 -3 55 -17 93 -31
39 -15 88 -33 110 -40 22 -7 54 -18 70 -25 17 -7 39 -16 50 -20 11 -3 40 -16
65 -28 25 -11 68 -24 95 -28 28 -3 55 -10 60 -14 6 -4 36 -14 68 -21 32 -7 60
-16 62 -20 16 -25 -140 -28 -1657 -30 -1356 -2 -1579 -1 -1594 12 -35 29 -384
425 -504 572 -8 10 -25 31 -37 45 -23 28 -30 52 -14 52 5 0 14 -7 21 -15 11
-13 14 -13 25 2 12 17 14 17 36 -2 l22 -20 -6 33 c-7 32 -6 33 15 17 14 -9 44
-15 78 -15 31 0 101 -7 156 -15 54 -8 132 -17 172 -20 39 -2 89 -12 109 -20
20 -9 44 -13 52 -10 8 3 18 0 22 -6 3 -6 12 -10 18 -8 8 3 5 13 -9 29 -12 14
-31 36 -42 50 -12 14 -65 75 -118 135 -53 61 -152 175 -221 254 -186 215 -273
315 -389 446 -58 66 -136 155 -174 199 -38 45 -117 133 -175 196 -58 63 -110
120 -116 126 -5 6 -46 51 -90 100 -44 49 -109 121 -145 159 -36 39 -88 97
-115 130 -28 33 -61 71 -75 85 -30 29 -80 94 -97 127 -22 43 -20 131 5 140 19
8 51 43 52 57 0 5 35 52 78 104 42 53 84 106 92 117 8 12 36 46 62 76 26 30
84 99 129 154 45 55 107 129 138 164 31 35 72 85 91 110 19 25 57 73 85 106
56 65 55 63 147 180 35 44 112 139 172 210 60 72 127 152 150 180 22 27 57 68
76 90 20 22 56 65 80 95 25 30 49 60 55 66 5 6 28 32 50 59 22 27 85 101 140
166 55 65 145 173 200 240 55 67 105 127 110 133 29 30 179 211 204 246 80
111 247 290 270 290 9 0 12 -3 6 -8 -6 -4 -25 -25 -44 -47 -18 -22 -63 -73
-98 -112 -36 -40 -93 -108 -126 -152 -102 -132 -238 -299 -308 -380 -54 -62
-142 -170 -222 -271 -23 -30 -212 -255 -217 -260 -9 -7 -102 -122 -125 -153
-11 -15 -24 -27 -30 -27 -5 0 -21 -19 -35 -41 -13 -22 -42 -59 -64 -82 -22
-23 -72 -84 -113 -134 -40 -51 -85 -105 -100 -120 -14 -16 -38 -44 -52 -63
-14 -20 -56 -72 -93 -115 -37 -44 -112 -134 -168 -200 -56 -66 -144 -174 -197
-240 -53 -66 -129 -160 -169 -210 -40 -49 -93 -111 -119 -137 -41 -43 -65 -83
-65 -109 0 -17 20 -9 21 9 0 12 3 10 11 -8 33 -78 40 -90 47 -90 4 0 30 -28
57 -62 27 -35 69 -86 94 -114 25 -28 72 -82 105 -120 33 -37 85 -96 115 -129
30 -34 75 -87 100 -119 25 -31 60 -74 78 -94 18 -21 30 -43 27 -52 -3 -9 9
-31 27 -52 18 -20 51 -57 73 -83 22 -26 45 -52 50 -59 6 -6 19 -22 28 -36 10
-14 45 -54 80 -90 34 -36 96 -106 138 -155 42 -50 87 -101 99 -115 56 -65 120
-137 137 -155 11 -11 52 -58 92 -105 41 -47 109 -123 152 -170 43 -47 92 -100
108 -119 17 -19 33 -32 36 -29 3 3 -7 19 -22 36 -49 55 -55 63 -51 68 7 7 158
-152 158 -167 0 -7 -16 2 -35 21 -59 57 -46 29 20 -45 35 -38 67 -67 71 -62 4
4 -3 18 -16 32 -13 14 -20 25 -17 25 4 0 38 -31 77 -70 123 -123 -27 -110
1311 -110 l1163 0 33 23 33 22 0 656 c0 361 3 670 6 687 l6 31 -423 1 c-404 1
-422 0 -408 -17 12 -15 15 -69 18 -278 3 -253 -3 -315 -29 -315 -5 0 -10 10
-10 21 0 18 -2 19 -15 9 -8 -7 -15 -19 -15 -26 0 -10 -14 -14 -52 -14 -29 0
-274 -1 -544 -2 -448 -2 -494 0 -517 15 -40 26 -54 20 -21 -8 l29 -25 558 2
c440 2 557 0 557 -9 0 -10 -119 -13 -563 -13 l-564 0 -61 63 c-34 34 -76 80
-94 102 -54 65 -127 146 -202 225 -39 42 -98 107 -131 145 -49 57 -164 184
-185 205 -3 3 -38 43 -79 90 -41 47 -107 121 -146 165 -40 44 -98 112 -130
150 -32 39 -89 102 -126 140 -90 93 -108 115 -125 148 -14 27 -13 29 58 117
40 49 174 214 297 367 124 153 266 328 316 388 50 61 172 209 270 330 98 121
207 254 243 295 35 41 74 86 86 100 12 14 62 75 111 135 49 61 119 144 155
186 36 41 79 93 96 115 l31 39 389 1 c214 1 395 -1 403 -4 11 -4 12 -54 6
-303 -4 -163 -4 -311 0 -327 l6 -31 392 -3 c216 -2 395 -1 399 2 11 8 18 1379
8 1385 -6 4 -10 13 -10 21 0 16 35 54 50 54 17 0 11 28 -13 56 -16 18 -37 29
-68 33 -24 4 -485 6 -1025 6 l-981 0 -35 -27 c-20 -15 -102 -107 -184 -205
-81 -98 -168 -202 -193 -232 -25 -30 -68 -82 -95 -115 -27 -34 -52 -63 -55
-66 -6 -4 -92 -104 -147 -170 -29 -34 -318 -384 -363 -439 -68 -84 -245 -296
-292 -351 -26 -30 -116 -139 -201 -241 -85 -102 -169 -201 -188 -220 -18 -19
-67 -77 -108 -129 -42 -52 -79 -97 -82 -100 -4 -3 -44 -52 -89 -110 -91 -114
-258 -308 -305 -352 -16 -15 -45 -29 -65 -32 -61 -10 -2726 -12 -3073 -2
l-326 8 -16 -30 c-12 -23 -17 -81 -22 -246 -7 -203 -17 -260 -27 -156 -10 93
2 -1823 12 -1995 13 -215 18 -248 34 -238 7 4 14 8 17 9 3 0 16 3 30 6 121 29
371 37 408 14 9 -6 12 268 12 1218 0 1100 2 1226 15 1226 9 0 27 -12 40 -27
l24 -28 1 -1337 c0 -879 3 -1337 10 -1340 5 -1 194 -2 420 0 l410 2 0 999 c0
790 3 1000 13 1003 6 3 142 3 301 2 265 -2 290 -4 306 -21 58 -63 269 -305
398 -458 84 -99 185 -216 223 -260 39 -44 116 -134 171 -200 55 -66 119 -142
143 -170 24 -27 89 -104 146 -170 56 -66 134 -156 173 -200 80 -90 155 -177
204 -239 19 -22 55 -63 81 -91 26 -27 73 -83 104 -122 l58 -73 409 0 409 0 19
-27 c10 -16 22 -36 26 -47 6 -17 5 -18 -18 -3 -21 14 -79 17 -436 19 l-412 3
-25 30 c-14 17 -60 71 -103 120 -92 105 -99 114 -165 191 -27 32 -81 94 -120
137 -38 44 -86 98 -105 121 -19 22 -80 92 -135 154 -55 62 -120 136 -144 165
-68 81 -82 98 -146 172 -33 39 -62 72 -65 75 -3 3 -37 43 -75 90 -75 91 -132
156 -153 174 -7 6 -39 45 -71 86 -32 41 -89 109 -127 151 -67 73 -89 98 -229
262 l-66 77 -232 -2 c-245 -1 -198 -13 68 -17 71 -1 131 -4 134 -6 2 -3 -103
-5 -235 -5 l-239 0 0 -397 c0 -219 -1 -642 -3 -939 -3 -521 -4 -542 -22 -537
-12 3 -20 -2 -24 -14 -12 -38 -75 -91 -114 -95 -104 -14 -325 -14 -1052 -3
-259 4 -291 2 -265 -10 l30 -14 -33 -1 c-18 0 -40 7 -48 15 -14 13 -14 15 0
15 22 0 20 11 -7 40 -12 14 -34 39 -48 57 l-27 32 4 2868 c2 1577 6 2931 9
3009 4 112 9 148 25 182 23 48 26 74 5 46 -14 -18 -14 -18 -15 7 0 36 65 107
115 124 34 12 421 14 2534 15 2269 0 2496 -1 2512 -16z m-1456 -643 c168 -12
-638 -21 -1830 -20 -638 0 -1168 3 -1177 5 -53 15 2 24 175 27 293 6 2729 -4
2832 -12z m3589 0 c35 -6 -34 -9 -219 -10 -148 0 -463 -4 -700 -7 -416 -5
-429 -5 -409 13 19 17 53 18 649 15 346 -1 651 -6 679 -11z m-2861 -8 c-7 -2
-19 -2 -25 0 -7 3 -2 5 12 5 14 0 19 -2 13 -5z m3527 -3 c0 -5 -7 -10 -16 -10
-8 0 -12 5 -9 10 3 6 10 10 16 10 5 0 9 -4 9 -10z m-4132 -837 c33 -4 42 -9
40 -22 -2 -12 -25 -20 -83 -31 -67 -12 -251 -14 -1138 -15 -932 0 -1057 -2
-1057 -15 -1 -8 -1 -238 -1 -510 0 -272 -2 -503 -5 -513 -5 -14 -9 -16 -20 -6
-7 6 -20 9 -29 6 -8 -4 -17 -3 -19 2 -8 13 -10 1086 -2 1099 6 9 262 12 1139
11 623 -1 1151 -3 1175 -6z m2050 -717 c-7 -8 -15 -12 -17 -11 -5 6 10 25 20
25 5 0 4 -6 -3 -14z m-468 -559 c0 -2 -11 -17 -25 -33 -14 -16 -25 -25 -25
-20 0 6 10 20 22 33 20 22 28 27 28 20z m-2520 -1087 c0 -5 -2 -10 -4 -10 -3
0 -8 5 -11 10 -3 6 -1 10 4 10 6 0 11 -4 11 -10z m176 -207 c-7 -7 -26 7 -26
19 0 6 6 6 15 -2 9 -7 13 -15 11 -17z m47 -47 c33 -42 36 -56 5 -24 -36 37
-51 58 -42 58 5 0 21 -16 37 -34z m1205 -271 c34 -35 62 -68 62 -73 0 -5 23
-33 51 -62 27 -29 47 -55 44 -58 -6 -6 -82 71 -127 127 -11 14 -40 47 -64 73
-24 26 -44 49 -44 52 0 17 22 0 78 -59z m279 -322 c108 -118 173 -195 173
-206 0 -9 -19 10 -105 109 -46 53 -111 126 -143 160 -7 8 -10 14 -5 14 5 0 41
-35 80 -77z m198 -223 c3 -5 1 -10 -4 -10 -6 0 -11 5 -11 10 0 6 2 10 4 10 3
0 8 -4 11 -10z m125 -154 c0 -9 -29 20 -80 80 -53 60 -39 56 19 -6 33 -36 61
-69 61 -74z m80 -81 c13 -14 21 -27 18 -30 -2 -3 -17 8 -31 25 -33 36 -20 41
13 5z m-740 -291 c0 -3 -7 -1 -15 6 -8 7 -15 17 -15 22 0 5 7 3 15 -6 8 -8 15
-18 15 -22z m360 -154 c0 -5 -4 -10 -9 -10 -6 0 -13 5 -16 10 -3 6 1 10 9 10
9 0 16 -4 16 -10z m-3147 -787 c-7 -2 -19 -2 -25 0 -7 3 -2 5 12 5 14 0 19 -2
13 -5z m2874 1 c-3 -3 -12 -4 -19 -1 -8 3 -5 6 6 6 11 1 17 -2 13 -5z m151 -1
c-27 -2 -69 -2 -95 0 -27 2 -5 3 47 3 52 0 74 -1 48 -3z m3895 0 c-7 -2 -21
-2 -30 0 -10 3 -4 5 12 5 17 0 24 -2 18 -5z m-3595 -425 c92 -22 185 -57 252
-96 59 -34 157 -110 164 -128 7 -19 -42 -55 -68 -49 -15 4 -42 -11 -101 -60
-44 -36 -87 -65 -96 -65 -9 0 -50 18 -91 40 -277 147 -645 59 -766 -183 -54
-108 -73 -264 -41 -349 l19 -53 -6 65 c-4 43 -1 75 7 95 l13 30 4 -40 c13
-159 124 -315 278 -393 88 -45 234 -52 351 -17 65 19 154 78 176 116 l17 31
39 -24 c21 -13 66 -43 99 -68 34 -25 93 -64 132 -88 38 -24 70 -50 70 -58 0
-24 -196 -171 -283 -213 -131 -62 -243 -85 -427 -85 -130 0 -169 4 -240 23
-47 12 -94 26 -105 31 -11 5 -35 14 -52 22 -18 7 -33 16 -33 20 0 5 -7 8 -15
8 -8 0 -23 8 -33 18 -10 10 -32 24 -50 31 -35 15 -140 113 -191 179 -96 125
-160 363 -148 550 6 101 47 233 99 318 52 87 201 235 286 283 222 128 496 169
740 109z m1607 6 c105 -23 128 -30 207 -63 142 -60 293 -185 373 -310 81 -128
123 -283 112 -418 -8 -94 -55 -250 -109 -362 -43 -91 -62 -116 -137 -191 -92
-92 -164 -141 -280 -190 -215 -92 -439 -102 -646 -29 -84 29 -221 100 -254
130 -10 10 -21 15 -24 13 -3 -3 -14 3 -25 13 -11 10 -35 29 -52 43 -58 46 -88
90 -155 225 -14 28 -33 64 -43 80 -22 36 -39 125 -52 264 -11 113 -2 170 41
287 28 75 50 114 104 183 151 196 358 306 650 345 50 7 226 -5 290 -20z
m-4310 -16 c3 -7 4 -352 3 -766 -3 -706 -4 -752 -20 -740 -25 19 -46 187 -54
436 -4 117 -10 208 -15 201 -4 -7 -15 -9 -25 -5 -17 7 -127 8 -194 3 -20 -2
-26 4 -31 28 -6 27 -10 -141 -13 -518 l-1 -138 145 -2 145 -2 1 -27 1 -28
-139 0 c-117 0 -140 2 -145 16 -3 8 -16 20 -29 25 l-24 9 0 753 c0 415 3 757
7 760 3 4 91 7 195 7 142 0 190 -3 193 -12z m705 0 c0 -7 1 -272 3 -588 1
-316 6 -582 10 -591 7 -14 55 -17 392 -25 211 -5 386 -11 388 -14 3 -3 7 -66
8 -140 2 -130 2 -135 -19 -138 -13 -2 -23 -13 -27 -30 l-6 -27 -558 -3 -558
-2 5 28 4 29 550 -5 c314 -3 553 -1 558 4 5 5 12 55 16 112 l7 103 -24 -2
c-13 -1 -193 -1 -400 -1 -303 2 -379 5 -394 16 -17 12 -20 34 -28 192 -5 99
-13 183 -17 188 -14 15 -236 17 -248 3 -5 -7 -13 -137 -16 -291 -7 -274 -14
-332 -39 -323 -16 5 -19 1498 -3 1509 6 4 98 8 204 8 147 0 192 -3 192 -12z
m4701 -20 c10 -13 76 -115 146 -227 242 -384 222 -357 243 -335 10 10 47 66
83 124 121 199 172 280 232 372 l61 93 216 3 c198 2 216 1 222 -15 5 -12 0
-25 -16 -38 -13 -12 -32 -37 -42 -56 -25 -43 -119 -175 -152 -211 -13 -15 -24
-30 -24 -32 0 -16 -220 -351 -378 -575 l-42 -61 6 -249 c4 -136 4 -257 0 -267
-18 -46 -25 26 -27 265 -1 218 1 255 15 270 9 10 16 21 16 25 0 4 9 17 21 29
12 12 32 38 44 58 13 20 71 109 129 198 58 89 106 166 106 171 0 6 3 10 8 10
4 0 18 18 32 40 13 22 28 40 32 40 4 0 8 7 8 15 0 8 5 15 10 15 6 0 10 5 10
11 0 10 13 29 60 86 6 7 10 15 10 18 0 8 79 124 98 143 6 8 17 22 22 33 10 17
7 19 -32 19 -38 0 -40 -1 -23 -14 18 -13 17 -16 -21 -62 -61 -74 -173 -228
-244 -334 -35 -52 -103 -152 -153 -222 -49 -71 -109 -163 -133 -205 l-44 -78
0 -111 c0 -128 -4 -147 -28 -134 -10 5 -65 12 -124 16 l-108 6 0 103 c0 59 -4
107 -10 110 -5 3 -10 17 -10 30 0 31 -34 93 -90 162 -61 76 -166 222 -259 358
-40 61 -77 112 -80 115 -4 3 -37 48 -73 101 -36 52 -73 101 -82 108 -9 8 -16
19 -16 26 0 7 -7 15 -15 19 -20 7 -19 -6 3 -30 9 -11 24 -33 33 -50 28 -53 44
-78 62 -98 9 -11 17 -26 17 -33 0 -7 3 -13 8 -13 9 0 35 -40 29 -46 -4 -4
-107 131 -107 140 0 13 -82 131 -100 143 -23 16 -26 38 -7 47 6 3 108 4 226 2
211 -4 215 -5 232 -28z m-6491 -1 c203 -55 331 -157 390 -314 20 -54 35 -170
24 -196 -11 -30 -21 -18 -27 35 -7 56 -37 151 -49 156 -5 2 -8 11 -8 20 0 8
-3 13 -6 9 -3 -3 2 -30 12 -59 21 -65 26 -250 7 -269 -7 -7 -13 -19 -13 -27 0
-28 -30 -43 -92 -46 -77 -4 -141 -21 -158 -41 -7 -8 -18 -15 -25 -15 -6 0 -20
-9 -30 -20 -10 -11 -26 -20 -35 -20 -9 0 -21 -5 -28 -12 -8 -8 -83 -11 -274
-9 -315 2 -368 9 -368 46 0 7 -5 26 -10 40 -8 22 -13 25 -25 15 -16 -13 -102
-6 -173 15 -36 11 -43 11 -51 -2 -19 -34 -31 119 -31 386 0 214 -3 272 -12
268 -15 -4 -16 -75 -3 -854 7 -438 6 -547 -5 -573 -9 -23 -15 -28 -21 -18 -5
7 -9 338 -8 735 0 398 -3 727 -6 733 -4 6 -4 18 -1 27 6 13 59 15 489 10 382
-4 493 -8 537 -20z m3773 -336 c37 -18 67 -37 67 -42 0 -4 -25 5 -56 22 -31
16 -64 29 -74 29 -11 0 -22 5 -25 10 -4 6 -57 10 -125 10 -68 0 -121 -4 -125
-10 -3 -5 -15 -10 -26 -10 -47 0 -155 -64 -221 -132 -74 -74 -86 -79 -36 -14
61 77 130 126 228 158 44 14 82 17 190 15 131 -2 137 -3 203 -36z m102 -62
c11 -17 -1 -21 -15 -4 -8 9 -8 15 -2 15 6 0 14 -5 17 -11z m2442 -11 c-3 -8
-6 -5 -6 6 -1 11 2 17 5 13 3 -3 4 -12 1 -19z m45 -52 c10 -11 18 -25 18 -32
0 -7 4 -14 8 -16 13 -5 55 -69 49 -74 -7 -8 -107 142 -106 158 0 9 2 9 6 -2 3
-8 14 -23 25 -34z m-2440 22 c-9 -9 -15 -9 -24 0 -9 9 -7 12 12 12 19 0 21 -3
12 -12z m-3539 -221 c-5 -7 -15 -31 -23 -54 -26 -83 -175 -237 -255 -263 -19
-6 -35 -15 -35 -19 0 -5 23 -32 51 -62 28 -30 75 -85 104 -124 30 -38 95 -122
145 -185 49 -63 95 -125 102 -138 13 -26 1 -45 -13 -19 -8 14 -24 17 -92 16
l-82 -2 85 -12 c84 -12 83 -12 -123 -14 l-209 -1 -36 38 c-20 21 -44 52 -52
68 -16 31 -28 47 -76 103 -17 20 -65 82 -108 138 -42 55 -83 107 -91 113 -8 7
-15 21 -15 31 0 24 -18 33 -35 19 -11 -9 -15 -9 -15 -1 0 6 -15 11 -32 10 -28
0 -30 -2 -13 -9 13 -6 -9 -9 -65 -9 -65 0 -93 4 -120 19 l-35 19 153 1 152 0
34 -37 c49 -55 115 -138 179 -224 31 -42 62 -83 69 -90 20 -21 71 -90 84 -112
10 -18 21 -20 95 -18 130 2 259 13 259 21 0 4 -11 11 -25 14 -15 4 -52 42
-100 104 -41 53 -113 141 -160 196 -85 99 -119 151 -109 167 8 14 26 10 40 -8
7 -10 16 -14 21 -10 4 5 0 14 -10 21 -20 16 -23 36 -4 36 8 0 46 16 86 35 40
20 81 33 90 30 11 -3 31 9 57 37 59 62 78 94 105 173 20 57 25 65 27 42 2 -16
-1 -34 -5 -40z m6293 -268 c23 -24 24 -31 26 -210 3 -297 0 -349 -17 -349 -13
0 -15 36 -15 263 0 219 -3 269 -16 295 -8 18 -19 34 -24 37 -9 5 -50 81 -50
93 0 4 16 -18 36 -48 20 -30 47 -66 60 -81z m-7296 -306 c0 -208 -6 -255 -29
-251 -22 4 -34 146 -26 306 7 120 7 122 31 122 l24 0 0 -177z m-53 -256 c-2
-6 -19 -15 -38 -21 l-34 -9 30 -7 c17 -4 -39 -8 -124 -9 -138 -1 -153 1 -135
14 10 8 15 15 11 15 -4 0 -3 8 2 18 8 15 24 17 151 14 101 -2 140 -6 137 -15z
m7674 -19 l7 -28 -147 0 -148 0 5 30 4 31 136 -3 136 -3 7 -27z"/>
<path d="M6095 14370 c-16 -4 42 -5 130 -2 88 3 162 6 164 8 8 7 -264 2 -294
-6z"/>
<path d="M5967 14267 c-12 -15 -16 -31 -13 -51 3 -16 7 -146 7 -290 1 -189 4
-243 10 -197 4 36 10 176 11 313 2 136 3 248 3 248 0 0 -8 -10 -18 -23z"/>
<path d="M11255 14069 c-11 -16 -1 -19 13 -3 7 8 8 14 3 14 -5 0 -13 -5 -16
-11z"/>
<path d="M11208 14017 c-63 -75 -79 -97 -71 -96 14 2 105 107 102 118 -2 5
-16 -5 -31 -22z"/>
<path d="M11073 13854 c-19 -20 -16 -38 3 -20 8 9 14 20 12 25 -2 5 -9 3 -15
-5z"/>
<path d="M11025 13796 c-36 -37 -39 -52 -4 -19 18 18 31 34 28 36 -2 3 -13 -5
-24 -17z"/>
<path d="M10896 13648 c-25 -29 -46 -56 -46 -60 0 -4 17 11 37 34 57 66 67 78
61 78 -3 0 -27 -23 -52 -52z"/>
<path d="M5963 13370 c0 -47 2 -66 4 -42 2 23 2 61 0 85 -2 23 -4 4 -4 -43z"/>
<path d="M10567 13256 c-44 -54 -50 -73 -7 -25 29 32 54 69 47 69 -1 0 -19
-20 -40 -44z"/>
<path d="M10449 13112 c-8 -10 -19 -24 -24 -32 -8 -13 -7 -13 9 -1 16 13 41
51 34 51 -2 0 -10 -8 -19 -18z"/>
<path d="M10363 13012 c-13 -15 -23 -31 -23 -35 0 -5 12 6 26 23 15 17 25 33
23 35 -2 2 -14 -9 -26 -23z"/>
<path d="M14490 12444 c0 -58 -9 -84 -43 -121 -20 -23 -24 -23 -259 -23 -215
0 -238 -2 -238 -17 0 -15 21 -16 251 -10 322 9 320 8 311 170 -5 73 -22 75
-22 1z"/>
<path d="M11722 12198 c-7 -7 -12 -16 -12 -21 0 -5 7 -1 16 8 9 9 14 18 12 20
-2 3 -10 -1 -16 -7z"/>
<path d="M11371 11778 c-29 -31 -38 -48 -25 -48 7 0 40 38 55 63 15 26 3 20
-30 -15z"/>
<path d="M6580 11479 c0 -5 11 -9 25 -9 14 0 25 2 25 4 0 2 -11 6 -25 8 -14 3
-25 1 -25 -3z"/>
<path d="M7073 11473 c236 -2 618 -2 850 0 232 1 40 2 -428 2 -467 0 -657 -1
-422 -2z"/>
<path d="M5968 11225 c-4 -122 1 -193 12 -175 7 12 2 270 -5 278 -1 2 -4 -44
-7 -103z"/>
<path d="M10830 11109 c0 -5 5 -7 10 -4 6 3 10 8 10 11 0 2 -4 4 -10 4 -5 0
-10 -5 -10 -11z"/>
<path d="M10780 11055 c-7 -8 -9 -15 -6 -15 4 0 14 7 22 15 9 8 11 15 6 15 -5
0 -15 -7 -22 -15z"/>
<path d="M10749 11013 c-13 -16 -12 -17 4 -4 16 13 21 21 13 21 -2 0 -10 -8
-17 -17z"/>
<path d="M10712 10974 c-7 -8 -8 -14 -3 -14 10 0 25 19 20 25 -2 1 -10 -3 -17
-11z"/>
<path d="M8602 10841 c2 -7 7 -12 11 -12 12 1 9 15 -3 20 -7 2 -11 -2 -8 -8z"/>
<path d="M10760 10778 c0 -4 16 -23 35 -42 19 -20 35 -39 35 -44 0 -10 90 -95
96 -90 2 2 -35 44 -81 93 -46 50 -84 87 -85 83z"/>
<path d="M10960 10550 c0 -5 5 -10 11 -10 5 0 7 5 4 10 -3 6 -8 10 -11 10 -2
0 -4 -4 -4 -10z"/>
<path d="M9800 10533 c1 -13 49 -68 54 -62 3 3 -3 15 -14 27 -11 12 -20 26
-20 32 0 5 -4 10 -10 10 -5 0 -10 -3 -10 -7z"/>
<path d="M11208 10273 c6 -10 23 -30 40 -45 16 -14 32 -32 34 -40 3 -7 8 -11
11 -8 7 7 -52 84 -76 99 -16 10 -17 10 -9 -6z"/>
<path d="M10090 10195 c0 -3 11 -17 25 -31 29 -29 34 -17 6 14 -18 21 -31 28
-31 17z"/>
<path d="M11310 10165 c0 -13 59 -80 64 -74 3 2 -11 22 -30 44 -19 22 -34 35
-34 30z"/>
<path d="M7480 10090 c0 -5 5 -10 10 -10 6 0 10 5 10 10 0 6 -4 10 -10 10 -5
0 -10 -4 -10 -10z"/>
<path d="M11400 10051 c0 -5 39 -50 88 -100 48 -49 110 -115 137 -147 28 -31
70 -78 95 -104 25 -26 65 -68 88 -94 24 -26 45 -46 48 -44 2 2 -7 15 -19 28
-12 14 -49 56 -82 95 -33 38 -69 79 -80 91 -11 11 -69 74 -130 139 -150 161
-145 157 -145 136z"/>
<path d="M14497 9918 c-4 -79 -6 -168 -6 -198 l2 -55 7 60 c13 101 21 335 12
335 -5 0 -12 -64 -15 -142z"/>
<path d="M11320 8812 c0 -10 22 -32 32 -32 5 0 3 9 -4 20 -13 20 -28 27 -28
12z"/>
<path d="M11245 8740 c3 -5 8 -10 11 -10 2 0 4 5 4 10 0 6 -5 10 -11 10 -5 0
-7 -4 -4 -10z"/>
<path d="M5956 8254 c-6 -77 -6 -80 20 -100 21 -17 45 -22 137 -27 239 -14
428 -5 404 19 -3 4 -107 5 -230 5 -154 -1 -232 2 -250 10 -28 13 -40 35 -60
118 l-14 54 -7 -79z"/>
<path d="M11039 7416 c14 -14 32 -26 40 -26 13 1 12 4 -4 16 -11 9 -29 20 -40
26 -17 9 -16 6 4 -16z"/>
<path d="M9667 7119 c-38 -91 -60 -210 -48 -256 l8 -28 6 25 c3 14 8 48 12 75
8 68 24 144 37 178 15 40 2 45 -15 6z"/>
<path d="M9657 6787 c-16 -102 39 -269 125 -379 88 -112 206 -204 328 -256
114 -48 162 -56 345 -57 120 0 195 4 225 13 184 54 238 76 327 134 109 70 138
108 84 108 -9 0 -46 20 -83 45 -69 46 -89 55 -69 32 6 -8 8 -17 4 -20 -9 -10
-43 -8 -43 2 0 12 -65 -2 -130 -29 -104 -42 -161 -53 -285 -54 -169 -1 -275
33 -377 123 -51 45 -128 156 -147 211 -26 76 -34 89 -61 88 -14 -1 -69 7 -123
17 -81 15 -100 21 -106 38 -7 17 -9 15 -14 -16z m370 -549 c71 -38 101 -58 87
-58 -16 0 -64 24 -64 33 0 4 -5 7 -11 7 -5 0 -27 11 -47 25 -50 34 -35 31 35
-7z m178 -80 c22 -4 66 -12 97 -16 81 -11 86 -25 8 -18 -98 8 -150 17 -150 27
0 5 -7 9 -15 9 -8 0 -15 5 -15 11 0 7 7 8 18 4 9 -4 35 -12 57 -17z m422 -24
c-3 -3 -12 -4 -19 -1 -8 3 -5 6 6 6 11 1 17 -2 13 -5z m-200 -20 c-3 -3 -12
-4 -19 -1 -8 3 -5 6 6 6 11 1 17 -2 13 -5z"/>
<path d="M12030 7350 c-67 -9 -147 -41 -221 -91 -98 -66 -152 -144 -184 -270
-21 -80 -17 -246 7 -299 9 -19 19 -42 22 -50 3 -8 4 1 1 20 -22 146 -14 177
20 75 21 -64 86 -165 135 -209 85 -77 193 -116 321 -116 169 0 342 104 409
247 29 63 50 131 50 168 0 17 5 37 11 45 7 11 9 -12 7 -81 -4 -101 2 -103 31
-12 24 75 4 202 -50 318 -31 66 -129 156 -215 199 -113 56 -217 73 -344 56z
m175 -39 c49 -6 36 -8 -72 -9 -73 -1 -140 -6 -150 -11 -10 -5 -44 -22 -77 -36
-32 -15 -83 -47 -112 -71 -66 -54 -72 -41 -7 16 48 41 166 105 213 113 39 7
139 6 205 -2z m105 -27 c0 -2 -9 -4 -20 -4 -11 0 -20 4 -20 9 0 5 9 7 20 4 11
-3 20 -7 20 -9z"/>
<path d="M12920 7142 c0 -7 6 -41 14 -75 8 -34 18 -95 23 -136 5 -45 13 -76
21 -79 20 -6 15 115 -8 184 -21 66 -50 126 -50 106z"/>
<path d="M11278 7046 c-19 -38 -25 -136 -9 -136 10 0 35 130 29 156 -2 12 -9
5 -20 -20z"/>
<path d="M11295 6757 c20 -241 210 -489 455 -596 30 -13 62 -27 70 -31 62 -30
162 -45 305 -45 150 1 169 4 330 53 99 30 228 109 311 189 89 86 134 165 140
244 2 32 9 70 14 84 6 15 10 40 10 56 l0 29 -97 -6 c-121 -7 -164 -11 -167
-16 -2 -1 -20 -39 -41 -83 -64 -133 -185 -240 -329 -292 -217 -77 -498 14
-626 202 -15 22 -42 79 -60 126 l-34 86 -51 4 c-27 2 -85 4 -127 4 -75 0 -77
1 -93 30 -15 29 -15 29 -10 -38z m1254 -550 c-2 -2 -26 -13 -54 -26 -27 -13
-58 -27 -67 -32 -10 -5 -27 -9 -37 -9 -11 0 -22 -4 -25 -9 -12 -19 -171 -36
-206 -22 -21 8 -15 10 37 10 34 1 72 5 85 10 13 5 43 14 68 21 25 7 79 25 120
41 41 15 77 25 79 23 2 -2 2 -5 0 -7z"/>
<path d="M7970 7203 c0 -336 4 -403 22 -403 12 0 -1 721 -13 735 -5 5 -9 -136
-9 -332z"/>
<path d="M7652 7500 c0 -14 2 -19 5 -12 2 6 2 18 0 25 -3 6 -5 1 -5 -13z"/>
<path d="M8346 7313 c4 -126 8 -230 10 -232 2 -2 4 100 4 227 0 153 -4 232
-10 232 -7 0 -9 -73 -4 -227z"/>
<path d="M8671 7006 c3 -421 7 -532 17 -529 9 4 12 120 12 534 0 484 -1 529
-16 529 -16 0 -17 -44 -13 -534z"/>
<path d="M14240 7570 c0 -5 4 -10 9 -10 6 0 13 5 16 10 3 6 -1 10 -9 10 -9 0
-16 -4 -16 -10z"/>
<path d="M14142 7500 c-17 -27 -15 -35 4 -16 8 9 14 21 12 26 -2 6 -9 1 -16
-10z"/>
<path d="M13536 7335 c4 -8 11 -15 16 -15 6 0 5 6 -2 15 -7 8 -14 15 -16 15
-2 0 -1 -7 2 -15z"/>
<path d="M13560 7307 c0 -9 31 -63 84 -144 25 -39 46 -76 46 -82 0 -6 3 -11 8
-11 4 0 13 -12 20 -27 17 -39 41 -68 48 -60 3 3 -8 26 -25 51 -17 24 -31 47
-31 51 0 5 -135 212 -146 224 -2 2 -4 1 -4 -2z"/>
<path d="M5990 7570 c0 -5 5 -10 10 -10 6 0 10 5 10 10 0 6 -4 10 -10 10 -5 0
-10 -4 -10 -10z"/>
<path d="M6143 7573 c43 -2 110 -2 150 0 40 1 5 3 -78 3 -82 0 -115 -2 -72 -3z"/>
<path d="M7231 7334 c0 -11 3 -14 6 -6 3 7 2 16 -1 19 -3 4 -6 -2 -5 -13z"/>
<path d="M6276 7328 c-23 -13 -20 -55 4 -68 19 -10 20 -21 20 -185 l0 -175 25
-6 c14 -3 132 -4 263 -2 270 5 284 8 327 81 20 35 25 57 25 111 0 134 -65 184
-265 203 l-80 8 75 3 c83 3 150 -11 195 -42 47 -31 95 -88 95 -110 0 -12 5
-28 10 -36 8 -12 10 -9 10 13 0 37 -31 95 -72 134 -49 47 -107 64 -233 69
-287 10 -383 11 -399 2z"/>
<path d="M6967 7013 c-4 -3 -7 -13 -7 -22 1 -13 3 -13 11 2 11 19 8 33 -4 20z"/>
</g>
</svg>
